<?xml version="1.0" standalone="no"?>
<!DOCTYPE svg PUBLIC "-//W3C//DTD SVG 20010904//EN"
 "http://www.w3.org/TR/2001/REC-SVG-20010904/DTD/svg10.dtd">
<svg version="1.0" xmlns="http://www.w3.org/2000/svg"
 width="96.000000pt" height="96.000000pt" viewBox="0 0 96.000000 96.000000"
 preserveAspectRatio="xMidYMid meet">

<g transform="translate(0.000000,96.000000) scale(0.100000,-0.100000)"
fill="#000000" stroke="none">
<path d="M463 820 c-5 -19 -14 -20 -172 -20 -91 0 -172 -4 -179 -8 -9 -7 -12
-71 -10 -288 l3 -279 127 -3 127 -3 -20 -56 c-17 -51 -18 -59 -4 -72 13 -14
17 -14 30 0 8 8 23 39 33 69 l19 55 63 0 63 0 19 -55 c10 -30 25 -61 33 -69
13 -14 17 -14 30 0 14 13 13 21 -4 72 l-20 57 23 0 c14 0 27 9 33 22 18 39
101 124 153 158 l50 32 0 178 0 177 -77 7 c-42 3 -122 6 -178 6 -94 0 -103 2
-108 20 -3 11 -10 20 -17 20 -7 0 -14 -9 -17 -20z m257 -252 c0 -49 -1 -50
-18 -35 -17 16 -22 12 -87 -53 -38 -39 -76 -70 -84 -70 -9 0 -39 23 -68 52
l-53 52 -68 -67 c-67 -66 -102 -83 -102 -50 0 21 149 173 169 173 9 0 39 -23
68 -52 l53 -52 60 59 c56 55 59 60 43 77 -15 17 -14 18 35 18 l52 0 0 -52z"/>
</g>
</svg>
